<mxfile host="app.diagrams.net" modified="2022-11-25T03:28:53.248Z" agent="5.0 (Windows NT 6.1; WOW64) AppleWebKit/537.36 (KHTML, like Gecko) Chrome/105.0.0.0 Safari/537.36" etag="vWQakHqmbKqkquemXka2" version="20.3.7" type="github">
  <diagram id="qxW23t45Zv4xxV3Ufy3a" name="第 1 页">
    <mxGraphModel dx="1108" dy="-719" grid="1" gridSize="10" guides="1" tooltips="1" connect="1" arrows="1" fold="1" page="1" pageScale="1" pageWidth="827" pageHeight="1169" math="0" shadow="0">
      <root>
        <mxCell id="0" />
        <mxCell id="1" parent="0" />
        <mxCell id="AbTpMx62s0C50aIhgdQE-2" value="" style="shape=mxgraph.flowchart.process;fillColor=#A9C4EB;fontSize=16;" vertex="1" parent="1">
          <mxGeometry x="209" y="1503" width="60" height="80" as="geometry" />
        </mxCell>
        <mxCell id="AbTpMx62s0C50aIhgdQE-3" value="" style="shape=mxgraph.flowchart.process;fillColor=#A9C4EB;fontSize=16;" vertex="1" parent="1">
          <mxGeometry x="209" y="1673" width="60" height="80" as="geometry" />
        </mxCell>
        <mxCell id="AbTpMx62s0C50aIhgdQE-4" value="0x03" style="shape=mxgraph.flowchart.process;fontStyle=1;fillColor=#A9C4EB;fontSize=16;" vertex="1" parent="1">
          <mxGeometry x="209" y="1643" width="60" height="30" as="geometry" />
        </mxCell>
        <mxCell id="AbTpMx62s0C50aIhgdQE-5" value="0x02" style="shape=mxgraph.flowchart.process;fontStyle=1;fillColor=#A9C4EB;fontSize=16;" vertex="1" parent="1">
          <mxGeometry x="209" y="1613" width="60" height="30" as="geometry" />
        </mxCell>
        <mxCell id="AbTpMx62s0C50aIhgdQE-6" value="0x01" style="shape=mxgraph.flowchart.process;fontStyle=1;fillColor=#A9C4EB;fontSize=16;" vertex="1" parent="1">
          <mxGeometry x="209" y="1583" width="60" height="30" as="geometry" />
        </mxCell>
        <mxCell id="AbTpMx62s0C50aIhgdQE-7" value="" style="shape=mxgraph.flowchart.process;fillColor=#A9C4EB;fontSize=16;" vertex="1" parent="1">
          <mxGeometry x="380" y="1525.5" width="154" height="45" as="geometry" />
        </mxCell>
        <mxCell id="AbTpMx62s0C50aIhgdQE-8" value="" style="shape=mxgraph.flowchart.process;fillColor=#A9C4EB;fontSize=16;" vertex="1" parent="1">
          <mxGeometry x="502" y="1668" width="154" height="45" as="geometry" />
        </mxCell>
        <mxCell id="AbTpMx62s0C50aIhgdQE-9" value="ele" style="shape=mxgraph.flowchart.process;fillColor=#A9C4EB;fontSize=16;" vertex="1" parent="1">
          <mxGeometry x="534" y="1525.5" width="40" height="45" as="geometry" />
        </mxCell>
        <mxCell id="AbTpMx62s0C50aIhgdQE-10" value="ele" style="shape=mxgraph.flowchart.process;fillColor=#A9C4EB;fontSize=16;" vertex="1" parent="1">
          <mxGeometry x="614" y="1525.5" width="40" height="45" as="geometry" />
        </mxCell>
        <mxCell id="AbTpMx62s0C50aIhgdQE-11" value="ele" style="shape=mxgraph.flowchart.process;fillColor=#A9C4EB;fontSize=16;" vertex="1" parent="1">
          <mxGeometry x="574" y="1525.5" width="40" height="45" as="geometry" />
        </mxCell>
        <mxCell id="AbTpMx62s0C50aIhgdQE-12" value="ele" style="shape=mxgraph.flowchart.process;fillColor=#A9C4EB;fontSize=16;" vertex="1" parent="1">
          <mxGeometry x="382" y="1668" width="40" height="45" as="geometry" />
        </mxCell>
        <mxCell id="AbTpMx62s0C50aIhgdQE-13" value="ele" style="shape=mxgraph.flowchart.process;fillColor=#A9C4EB;fontSize=16;" vertex="1" parent="1">
          <mxGeometry x="462" y="1668" width="40" height="45" as="geometry" />
        </mxCell>
        <mxCell id="AbTpMx62s0C50aIhgdQE-14" value="ele" style="shape=mxgraph.flowchart.process;fillColor=#A9C4EB;fontSize=16;" vertex="1" parent="1">
          <mxGeometry x="422" y="1668" width="40" height="45" as="geometry" />
        </mxCell>
        <mxCell id="AbTpMx62s0C50aIhgdQE-15" value="ele" style="shape=mxgraph.flowchart.process;fillColor=#A9C4EB;fontSize=16;" vertex="1" parent="1">
          <mxGeometry x="379" y="1598" width="40" height="45" as="geometry" />
        </mxCell>
        <mxCell id="AbTpMx62s0C50aIhgdQE-16" value="ele" style="shape=mxgraph.flowchart.process;fillColor=#A9C4EB;fontSize=16;" vertex="1" parent="1">
          <mxGeometry x="459" y="1598" width="40" height="45" as="geometry" />
        </mxCell>
        <mxCell id="AbTpMx62s0C50aIhgdQE-17" value="ele" style="shape=mxgraph.flowchart.process;fillColor=#A9C4EB;fontSize=16;" vertex="1" parent="1">
          <mxGeometry x="419" y="1598" width="40" height="45" as="geometry" />
        </mxCell>
        <mxCell id="AbTpMx62s0C50aIhgdQE-18" value="ele" style="shape=mxgraph.flowchart.process;fillColor=#A9C4EB;fontSize=16;" vertex="1" parent="1">
          <mxGeometry x="499" y="1598" width="40" height="45" as="geometry" />
        </mxCell>
        <mxCell id="AbTpMx62s0C50aIhgdQE-19" value="ele" style="shape=mxgraph.flowchart.process;fillColor=#A9C4EB;fontSize=16;" vertex="1" parent="1">
          <mxGeometry x="579" y="1598" width="40" height="45" as="geometry" />
        </mxCell>
        <mxCell id="AbTpMx62s0C50aIhgdQE-20" value="ele" style="shape=mxgraph.flowchart.process;fillColor=#A9C4EB;fontSize=16;" vertex="1" parent="1">
          <mxGeometry x="539" y="1598" width="40" height="45" as="geometry" />
        </mxCell>
        <mxCell id="AbTpMx62s0C50aIhgdQE-21" value="ele" style="shape=mxgraph.flowchart.process;fillColor=#A9C4EB;fontSize=16;" vertex="1" parent="1">
          <mxGeometry x="618" y="1598" width="40" height="45" as="geometry" />
        </mxCell>
        <mxCell id="AbTpMx62s0C50aIhgdQE-22" value="" style="edgeStyle=elbowEdgeStyle;elbow=horizontal;endArrow=classic;html=1;entryX=-0.032;entryY=0.478;entryDx=0;entryDy=0;entryPerimeter=0;fontSize=16;" edge="1" parent="1" target="AbTpMx62s0C50aIhgdQE-7">
          <mxGeometry width="50" height="50" relative="1" as="geometry">
            <mxPoint x="274" y="1603" as="sourcePoint" />
            <mxPoint x="387" y="1583" as="targetPoint" />
            <Array as="points">
              <mxPoint x="327" y="1593" />
            </Array>
          </mxGeometry>
        </mxCell>
        <mxCell id="AbTpMx62s0C50aIhgdQE-23" value="" style="edgeStyle=elbowEdgeStyle;elbow=horizontal;endArrow=classic;html=1;entryX=-0.075;entryY=0.556;entryDx=0;entryDy=0;entryPerimeter=0;fontSize=16;" edge="1" parent="1" source="AbTpMx62s0C50aIhgdQE-4" target="AbTpMx62s0C50aIhgdQE-12">
          <mxGeometry width="50" height="50" relative="1" as="geometry">
            <mxPoint x="44" y="1843" as="sourcePoint" />
            <mxPoint x="94" y="1793" as="targetPoint" />
          </mxGeometry>
        </mxCell>
        <mxCell id="AbTpMx62s0C50aIhgdQE-24" style="edgeStyle=orthogonalEdgeStyle;rounded=0;orthogonalLoop=1;jettySize=auto;html=1;fontSize=16;" edge="1" parent="1">
          <mxGeometry relative="1" as="geometry">
            <mxPoint x="374" y="1628" as="targetPoint" />
            <mxPoint x="272" y="1628" as="sourcePoint" />
            <Array as="points">
              <mxPoint x="324.5" y="1627.5" />
              <mxPoint x="324.5" y="1627.5" />
            </Array>
          </mxGeometry>
        </mxCell>
        <mxCell id="AbTpMx62s0C50aIhgdQE-25" value="节点" style="text;html=1;align=center;verticalAlign=middle;resizable=0;points=[];autosize=1;fontStyle=1;fontSize=16;" vertex="1" parent="1">
          <mxGeometry x="164" y="1613" width="40" height="20" as="geometry" />
        </mxCell>
        <mxCell id="AbTpMx62s0C50aIhgdQE-26" value="中控器" style="text;html=1;align=center;verticalAlign=middle;resizable=0;points=[];autosize=1;fontStyle=1;fontSize=16;" vertex="1" parent="1">
          <mxGeometry x="217" y="1470" width="50" height="20" as="geometry" />
        </mxCell>
        <mxCell id="AbTpMx62s0C50aIhgdQE-27" value="&lt;b style=&quot;font-size: 16px;&quot;&gt;缓冲区&lt;/b&gt;" style="text;html=1;align=center;verticalAlign=middle;resizable=0;points=[];autosize=1;fontSize=16;" vertex="1" parent="1">
          <mxGeometry x="464" y="1463" width="50" height="20" as="geometry" />
        </mxCell>
        <mxCell id="AbTpMx62s0C50aIhgdQE-28" value="&lt;font style=&quot;font-size: 21px&quot;&gt;&lt;b&gt;deque原理图&lt;/b&gt;&lt;/font&gt;" style="text;html=1;align=center;verticalAlign=middle;resizable=0;points=[];autosize=1;" vertex="1" parent="1">
          <mxGeometry x="308" y="1410" width="140" height="20" as="geometry" />
        </mxCell>
      </root>
    </mxGraphModel>
  </diagram>
</mxfile>
